<svg width="78" height="73" viewBox="0 0 78 73" fill="none" xmlns="http://www.w3.org/2000/svg">
<g clip-path="url(#clip0_1_237)">
<path d="M76.7189 22.4624H1.28126C0.580434 22.4624 6.10352e-05 23.0275 6.10352e-05 23.7339V65.1951C6.10352e-05 65.8906 0.569484 66.4666 1.28126 66.4666H5.75999V71.5528C5.75999 72.2484 6.32942 72.8244 7.0412 72.8244H70.9589C71.6598 72.8244 72.2401 72.2592 72.2401 71.5528V66.4558H76.7189C77.4197 66.4558 78.0001 65.8906 78.0001 65.1842V23.7339C78.0001 23.0275 77.4197 22.4624 76.7189 22.4624ZM69.6887 70.2704H8.31145V66.4558H69.6887V70.2704ZM75.4377 63.9235H2.55151V60.5979H75.4377V63.9235ZM65.2975 47.9042C67.7176 47.9042 69.6777 49.8496 69.6777 52.2514V58.0766H8.31145V52.2514C8.31145 49.8496 10.2825 47.9042 12.6916 47.9042H65.2975ZM14.8598 45.3611V33.6781C14.8598 32.4392 15.8673 31.4393 17.1156 31.4393H35.4685C36.7059 31.4393 37.7243 32.4392 37.7243 33.6781V45.3611H14.8598ZM40.2758 45.3611V33.6781C40.2758 32.4392 41.2832 31.4393 42.5316 31.4393H60.8845C62.1219 31.4393 63.1403 32.4392 63.1403 33.6781V45.3611H40.2758ZM75.4377 58.0657H72.2292V52.2405C72.2292 48.5998 69.3711 45.6111 65.6808 45.372C65.6808 45.372 66.0093 35.3083 65.3851 32.037C65.0128 30.0808 62.9104 28.8962 60.8736 28.8962H42.5316C41.1847 28.8962 39.9035 29.4613 38.9946 30.4395C38.0857 29.4722 36.8154 28.8962 35.4685 28.8962H17.1156C14.4656 28.8962 12.3084 31.0372 12.3084 33.6672V45.372C8.66186 45.5785 5.75999 48.578 5.75999 52.2405V58.0657H2.55151V24.9946H75.4377V58.0657Z" fill="#4E868D"/>
<path d="M76.8612 9.60587L72.8643 7.44315L70.6304 1.4658C70.488 1.07455 70.1048 0.813721 69.6777 0.813721C69.2616 0.813721 68.8783 1.07455 68.725 1.4658L66.4911 7.44315L62.5052 9.60587C62.1767 9.77976 61.9796 10.1167 61.9796 10.4862C61.9796 10.8557 62.1767 11.1926 62.5052 11.3665L66.5021 13.5401L68.736 19.2349C68.8893 19.6152 69.2616 19.8761 69.6777 19.8761C70.0938 19.8761 70.4661 19.6152 70.6194 19.2349L72.8533 13.5401L76.8502 11.3665C77.1788 11.1926 77.3759 10.8557 77.3759 10.4862C77.3868 10.1167 77.1788 9.77976 76.8612 9.60587ZM74.2659 10.4862L71.5721 11.9425C71.3641 12.0512 71.1998 12.2359 71.1122 12.4641L69.6887 16.094L68.2651 12.4641C68.1775 12.2359 68.0132 12.062 67.8052 11.9533L65.1114 10.4862L67.8161 9.019C68.0351 8.89946 68.1994 8.7147 68.2761 8.48648L69.6887 4.70444L71.1013 8.48648C71.1889 8.7147 71.3531 8.89946 71.5612 9.019L74.2659 10.4862Z" fill="#4E868D"/>
<path d="M59.2858 11.757L56.1649 10.0616L54.4019 5.35581C54.2596 4.96457 53.8763 4.70374 53.4492 4.70374C53.0331 4.70374 52.6499 4.96457 52.4966 5.35581L50.7335 10.0616L47.6017 11.757C47.2732 11.9309 47.0761 12.2678 47.0761 12.6373C47.0761 13.0068 47.2732 13.3437 47.6017 13.5176L50.7335 15.213L52.4856 19.7015C52.6389 20.0818 53.0112 20.3427 53.4273 20.3427C53.8435 20.3427 54.2267 20.0818 54.3691 19.7015L56.1211 15.213L59.253 13.5176C59.5815 13.3437 59.7786 13.0068 59.7786 12.6373C59.8114 12.2787 59.6143 11.9418 59.2858 11.757ZM56.6906 12.6373L54.8618 13.6372C54.6538 13.7567 54.4895 13.9415 54.4019 14.148L53.4492 16.5715L52.5075 14.1588C52.4199 13.9415 52.2666 13.7567 52.0476 13.6372L50.2079 12.6373L52.0366 11.6483C52.2557 11.5397 52.4199 11.344 52.4966 11.1158L53.4383 8.59445L54.38 11.1158C54.4676 11.344 54.6319 11.5397 54.8399 11.6483L56.6906 12.6373Z" fill="#4E868D"/>
</g>
<defs>
<clipPath id="clip0_1_237">
<rect width="78" height="72" fill="white" transform="translate(6.10352e-05 0.813721)"/>
</clipPath>
</defs>
</svg>
