<svg width="31" height="30" viewBox="0 0 31 30" fill="none" xmlns="http://www.w3.org/2000/svg">
<path d="M24.4792 11.7503H22.2342C22.2333 10.8574 21.8782 10.0014 21.2469 9.37006C20.6155 8.73871 19.7595 8.38363 18.8666 8.38274V6.1377C20.3546 6.13948 21.7812 6.73138 22.8334 7.78356C23.8856 8.83574 24.4775 10.2623 24.4792 11.7503Z" fill="#F4A418"/>
<path d="M28.9693 11.7506H26.7243C26.7219 9.66739 25.8933 7.67015 24.4202 6.19707C22.9471 4.72399 20.9499 3.89537 18.8666 3.89299V1.64795C21.5451 1.65092 24.1131 2.71626 26.007 4.61024C27.901 6.50422 28.9664 9.07215 28.9693 11.7506Z" fill="#F4A418"/>
<path d="M20.3633 21.2733L22.8778 18.7589C23.2144 18.4222 23.6423 18.1917 24.1086 18.0959C24.5749 18.0002 25.0591 18.0433 25.5011 18.22L28.5634 19.4458C29.0147 19.6264 29.4016 19.9381 29.6741 20.3407C29.9466 20.7432 30.0922 21.2182 30.0922 21.7044V27.2732C30.093 27.6042 30.0262 27.9318 29.896 28.2361C29.7658 28.5404 29.5748 28.8149 29.3348 29.0428C29.0948 29.2708 28.8108 29.4473 28.5002 29.5617C28.1896 29.676 27.8589 29.7258 27.5284 29.7079C6.06353 28.3721 1.72836 10.1918 0.923508 3.2299C0.884527 2.88954 0.918044 2.54479 1.02186 2.21832C1.12567 1.89185 1.29742 1.59106 1.52582 1.33573C1.75422 1.0804 2.03409 0.876313 2.34702 0.736901C2.65994 0.597489 2.99884 0.525908 3.34142 0.526865H8.81147C9.2976 0.526849 9.77258 0.672491 10.1751 0.945004C10.5777 1.21752 10.8894 1.6044 11.07 2.05574L12.2947 5.11798C12.4714 5.56 12.5145 6.04416 12.4188 6.51047C12.323 6.97678 12.0925 7.40474 11.7558 7.74131L9.24139 10.2558C9.24139 10.2558 10.6356 20.0576 20.3633 21.2733Z" fill="#F4A418"/>
</svg>
