<svg width="264" height="119" viewBox="0 0 264 119" fill="none" xmlns="http://www.w3.org/2000/svg">
<path d="M21.5618 27.298C21.1343 28.0538 20.5154 28.6863 19.766 29.1332C18.9242 29.6017 17.9691 29.8332 17.004 29.8026C16.4913 29.8144 15.9821 29.7162 15.5113 29.5148C15.0998 29.333 14.7387 29.0554 14.4587 28.7057C14.1755 28.3383 13.9693 27.9186 13.8524 27.4711C13.7162 26.9466 13.6497 26.4068 13.6545 25.8653V14.0327H10.7324V13.1985C11.5402 13.2274 12.3422 13.0523 13.0629 12.6896C13.6697 12.3554 14.1855 11.8802 14.5661 11.3049C14.9733 10.6771 15.2834 9.99245 15.4861 9.27373C15.7071 8.51255 15.9071 7.70341 16.0692 6.84839H17.0376V12.6229H20.8481V14.0431H17.0376V25.8778C17.0343 26.1175 17.0812 26.3553 17.1754 26.576C17.2696 26.7968 17.4091 26.9958 17.585 27.1604C17.7557 27.3344 17.9609 27.4715 18.1877 27.563C18.4145 27.6545 18.658 27.6985 18.9029 27.6922C19.268 27.6962 19.6272 27.6002 19.9408 27.4148C20.2467 27.2354 20.5189 27.0047 20.745 26.7329L21.5618 27.298Z" fill="white"/>
<path d="M26.9713 15.6831C27.8611 14.6316 28.945 13.7575 30.165 13.1077C31.2116 12.5642 32.3748 12.2781 33.5565 12.2735C34.1376 12.269 34.7107 12.4081 35.2239 12.6781C35.7493 12.9678 36.2092 13.361 36.5754 13.8334C36.9713 14.3155 37.2791 14.8625 37.4849 15.4496C37.7128 16.087 37.8275 16.7587 37.8239 17.4349V29.4427H34.4428V17.8895C34.5171 16.981 34.2519 16.077 33.6976 15.3495C33.4542 15.0751 33.1523 14.8579 32.8136 14.7136C32.475 14.5693 32.1081 14.5016 31.7397 14.5153C31.3444 14.5151 30.9513 14.5734 30.5734 14.6884C30.1697 14.8127 29.7791 14.9754 29.4071 15.1743C28.9775 15.3948 28.5645 15.6457 28.1713 15.9251C27.7615 16.2309 27.3719 16.5625 27.005 16.9177V29.4448H23.6029V4.95575L26.0029 4.02148H26.9713V15.6831Z" fill="white"/>
<path d="M48.033 29.7987C46.9231 29.8176 45.8209 29.6132 44.793 29.1981C43.8117 28.7873 42.918 28.1957 42.1594 27.4547C41.4005 26.7161 40.7947 25.8377 40.3762 24.8688C39.9417 23.8544 39.7265 22.7611 39.7446 21.6594C39.7319 20.3842 39.9325 19.1158 40.3383 17.9056C40.7169 16.8108 41.3068 15.7994 42.0752 14.9276C42.8033 14.0966 43.7009 13.4279 44.7088 12.9652C45.7839 12.479 46.9544 12.2347 48.1362 12.2499C49.1876 12.2376 50.2306 12.4378 51.2014 12.838C52.9755 13.5478 54.3924 14.9265 55.1403 16.671C55.5099 17.517 55.7005 18.429 55.7003 19.3508H42.9615C42.9453 20.4125 43.0872 21.4707 43.3825 22.4914C43.6396 23.3923 44.0582 24.2399 44.6183 24.9939C45.1251 25.6708 45.7708 26.2337 46.513 26.6456C47.2563 27.0479 48.0913 27.2547 48.9383 27.2462C49.6554 27.2457 50.3673 27.1244 51.0435 26.8875C51.6983 26.6669 52.3185 26.3559 52.8856 25.9637C53.4183 25.5958 53.8935 25.1524 54.2961 24.6478C54.6603 24.1896 54.9371 23.6694 55.1129 23.1129L56.0687 23.53C55.8203 24.4008 55.4261 25.2242 54.9024 25.9657C54.3774 26.7199 53.7384 27.3895 53.0077 27.9511C52.3012 28.5112 51.5161 28.9664 50.6772 29.3024C49.8358 29.6334 48.9383 29.8018 48.033 29.7987ZM51.3909 18.0099C51.3993 17.4004 51.284 16.7955 51.0519 16.231C50.8341 15.6975 50.5138 15.2109 50.1088 14.7983C49.7061 14.3874 49.224 14.0612 48.6912 13.839C48.1584 13.6169 47.5858 13.5034 47.0077 13.5054C46.5017 13.5077 46.003 13.6262 45.5509 13.8515C45.0808 14.0846 44.661 14.4062 44.3151 14.7983C43.5325 15.6982 43.0624 16.8233 42.9741 18.0078L51.3909 18.0099Z" fill="white"/>
<path d="M7.99349 43.2971C10.0806 40.8439 12.6179 38.8046 15.4713 37.2869C17.9121 35.9824 20.6349 35.2812 23.4081 35.2432C24.7643 35.238 26.1011 35.5632 27.3007 36.19C28.5137 36.8349 29.5867 37.71 30.4586 38.7655C31.392 39.8962 32.1142 41.1829 32.5912 42.5651C33.119 44.0486 33.3832 45.6114 33.3722 47.1843V75.5168H25.5239V48.521C25.6872 46.4002 25.0612 44.2934 23.7639 42.5985C23.1944 41.9485 22.4854 41.4328 21.6887 41.0893C20.8921 40.7458 20.028 40.5831 19.1597 40.6131C18.259 40.6202 17.3641 40.7564 16.5029 41.0177C15.5198 41.312 14.5674 41.6989 13.6587 42.173C12.6552 42.6891 11.6924 43.2796 10.7787 43.9394C9.79608 44.6423 8.86531 45.4138 7.99349 46.2479V75.5168H0.103027V24.7952L5.73245 22.5889H7.99349V43.2971Z" fill="white"/>
<path d="M56.81 76.3777C54.2008 76.3985 51.6148 75.8918 49.2101 74.8887C46.9021 73.9149 44.8017 72.5158 43.0207 70.7658C41.2419 69.029 39.8205 66.9666 38.8354 64.6931C37.8095 62.3385 37.2897 59.798 37.3091 57.2335C37.2808 54.2485 37.7532 51.2794 38.707 48.4477C39.5608 45.9054 40.9066 43.5523 42.6691 41.5199C44.3732 39.5624 46.4798 37.9883 48.848 36.9028C51.3717 35.7661 54.118 35.1964 56.89 35.2345C59.352 35.2024 61.795 35.6657 64.071 36.5962C68.2245 38.2805 71.5415 41.5169 73.3046 45.6052C74.1724 47.5911 74.6168 49.7331 74.6099 51.897H44.8985C44.8794 54.3774 45.2248 56.8474 45.9238 59.2293C46.5275 61.3488 47.5109 63.3436 48.8269 65.1185C50.0134 66.7031 51.5279 68.0185 53.269 68.9765C55.0111 69.9182 56.9687 70.3994 58.9532 70.3738C60.6392 70.3796 62.3142 70.1025 63.9068 69.5542C65.4446 69.0322 66.9004 68.2979 68.231 67.3728C69.472 66.5094 70.5791 65.471 71.5173 64.2906C72.3756 63.2206 73.0278 62.0033 73.4415 60.6995L75.6667 61.6922C75.0751 63.7287 74.1506 65.6555 72.9299 67.3958C70.4583 70.9273 66.9817 73.6504 62.9426 75.2182C60.9898 75.982 58.9095 76.3753 56.81 76.3777ZM64.7026 48.7334C64.715 47.3041 64.4417 45.8866 63.8984 44.5625C63.382 43.317 62.6327 42.1792 61.69 41.2092C60.7448 40.244 59.6121 39.4784 58.3603 38.9583C57.1084 38.4383 55.7633 38.1746 54.4058 38.1832C53.2162 38.1798 52.0424 38.4526 50.9785 38.9799C49.8756 39.5263 48.8932 40.2841 48.088 41.2092C46.2478 43.3093 45.1436 45.9431 44.9406 48.7167L64.7026 48.7334Z" fill="white"/>
<path d="M108.84 75.5135H100.904V70.1207C99.9835 70.836 99.0509 71.5805 98.1667 72.302C97.2485 73.0497 96.2697 73.7214 95.2404 74.3103C94.1352 74.9455 92.9578 75.4488 91.7331 75.8097C90.286 76.2202 88.7854 76.4148 87.2805 76.3873C85.8267 76.4107 84.382 76.1558 83.0258 75.6366C81.83 75.185 80.7449 74.4866 79.8426 73.5877C78.9402 72.6888 78.2413 71.6101 77.7921 70.423C77.3064 69.1825 77.0614 67.8622 77.07 66.5316C77.0353 64.933 77.3868 63.3492 78.0953 61.9124C78.7874 60.5383 79.7278 59.3014 80.87 58.263C82.1109 57.1381 83.4894 56.172 84.9731 55.3872C86.5829 54.5254 88.2498 53.7729 89.9625 53.1349C91.7338 52.4731 93.552 51.8878 95.4172 51.379C97.2825 50.8702 99.1014 50.3863 100.872 49.9359V47.5251C100.904 46.018 100.724 44.5137 100.335 43.0561C100.039 41.9654 99.5105 40.9501 98.7856 40.0781C98.1357 39.3331 97.3014 38.7683 96.3646 38.439C95.3319 38.095 94.2477 37.9272 93.1583 37.9426C92.0426 37.902 90.9297 38.0785 89.8826 38.4619C89.1182 38.7475 88.4345 39.211 87.8889 39.8133C87.4165 40.364 87.0812 41.0169 86.9099 41.7193C86.739 42.4347 86.6549 43.1677 86.6594 43.9028C86.6602 44.5684 86.6017 45.2327 86.4847 45.8881C86.3815 46.48 86.1764 47.05 85.8784 47.5731C85.5959 48.0508 85.1943 48.4486 84.7121 48.7284C84.1103 49.0319 83.4393 49.1756 82.7647 49.1455C82.1998 49.1613 81.6385 49.0512 81.1222 48.8235C80.6059 48.5957 80.1477 48.2561 79.7816 47.8296C78.9936 46.9104 78.5786 45.7338 78.6174 44.5284C78.6271 43.2052 79.0778 41.9222 79.8995 40.8789C80.8439 39.6655 82.0353 38.6623 83.3963 37.9343C85.0103 37.063 86.7352 36.4107 88.5247 35.9949C90.5387 35.5084 92.6053 35.2681 94.6783 35.2796C96.9132 35.2389 99.1435 35.4949 101.31 36.0407C102.903 36.4428 104.395 37.1663 105.693 38.1658C106.784 39.0319 107.622 40.1718 108.118 41.467C108.626 42.8504 108.875 44.314 108.853 45.7859L108.84 75.5135ZM100.904 52.5364C99.0812 53.0928 97.2912 53.7479 95.5414 54.4988C93.7508 55.2583 92.0276 56.1652 90.3899 57.2098C88.9316 58.1243 87.6225 59.2537 86.5078 60.559C85.5457 61.6427 85.0046 63.0304 84.9815 64.4733C84.978 65.4033 85.1605 66.3247 85.5184 67.1844C85.8589 68.0297 86.3439 68.8107 86.952 69.4929C87.5355 70.13 88.2301 70.6577 89.0026 71.0508C89.7526 71.433 90.5843 71.6311 91.4278 71.6284C92.2913 71.6334 93.1511 71.5168 93.9815 71.2822C94.7866 71.0496 95.5671 70.7402 96.312 70.3584C97.1014 69.9497 97.8611 69.487 98.5856 68.9737C99.3435 68.4419 100.112 67.8893 100.916 67.3053L100.904 52.5364Z" fill="white"/>
<path d="M124.124 75.5168H116.221V24.7952L121.85 22.5889H124.124V75.5168Z" fill="white"/>
<path d="M151.385 70.5045C150.38 72.2728 148.93 73.7529 147.175 74.8004C145.201 75.9025 142.959 76.4457 140.695 76.3707C139.494 76.4016 138.301 76.1732 137.198 75.7013C136.24 75.2824 135.4 74.6382 134.75 73.8244C134.084 72.9639 133.604 71.9773 133.339 70.9257C133.022 69.6997 132.869 68.4376 132.885 67.172V39.3984H125.988V37.4589C127.881 37.5378 129.765 37.1403 131.461 36.3036C132.875 35.5186 134.075 34.405 134.958 33.0587C135.92 31.5964 136.647 29.9952 137.114 28.3123C137.642 26.5049 138.092 24.6113 138.466 22.6316H140.739V36.0721H149.68V39.3984H140.739V67.1782C140.729 67.7365 140.835 68.2908 141.049 68.8072C141.264 69.3236 141.582 69.7912 141.986 70.1812C142.386 70.5841 142.866 70.9015 143.396 71.1138C143.925 71.3261 144.492 71.4289 145.063 71.4158C145.924 71.4283 146.772 71.2045 147.512 70.7693C148.225 70.3447 148.86 69.8015 149.388 69.1635L151.385 70.5045Z" fill="white"/>
<path d="M160.502 43.2971C162.581 40.849 165.108 38.812 167.95 37.2931C170.403 35.9997 173.135 35.3142 175.913 35.2953C177.273 35.2886 178.614 35.6137 179.818 36.2421C181.031 36.887 182.104 37.7622 182.976 38.8176C183.914 39.9471 184.641 41.234 185.121 42.6172C185.648 44.1009 185.912 45.6636 185.902 47.2364V75.5168H178.001V48.521C178.158 46.3988 177.528 44.2926 176.228 42.5985C175.659 41.9485 174.95 41.4328 174.153 41.0893C173.357 40.7458 172.492 40.5831 171.624 40.6131C170.723 40.6202 169.829 40.7564 168.967 41.0177C167.985 41.3136 167.032 41.7004 166.123 42.173C165.133 42.6921 164.182 43.2825 163.279 43.9394C162.298 44.6445 161.367 45.4158 160.494 46.2479V75.5168H152.612V24.7952L158.231 22.5889H160.504L160.502 43.2971Z" fill="white"/>
<path d="M186.028 36.1321H195.016L210.413 64.6043L222.967 36.1321H227.152L206.87 82.4284C206.086 84.2111 205.084 85.892 203.887 87.4334C202.872 88.7454 201.698 89.9285 200.39 90.9557C199.232 91.8435 197.937 92.5412 196.555 93.0223C195.314 93.452 194.01 93.6781 192.696 93.6917C191.859 93.6947 191.027 93.5781 190.224 93.3455C189.502 93.1326 188.818 92.8089 188.197 92.3862C187.64 92.0079 187.171 91.5158 186.822 90.9431C186.492 90.3871 186.319 89.7532 186.321 89.108C186.32 88.5605 186.431 88.0184 186.647 87.5147C186.859 87.0011 187.176 86.5372 187.58 86.1529C188.015 85.7502 188.521 85.4294 189.073 85.2062C189.698 84.9529 190.368 84.8273 191.043 84.837C191.715 84.8111 192.386 84.9051 193.024 85.1144C193.475 85.2878 193.912 85.497 194.329 85.74C194.732 85.9721 195.148 86.181 195.576 86.3656C196.16 86.58 196.782 86.6778 197.405 86.6534C198.188 86.6626 198.953 86.4196 199.584 85.9611C200.249 85.4704 200.832 84.8777 201.308 84.2051C201.828 83.475 202.284 82.7028 202.672 81.8966C203.081 81.0624 203.453 80.2804 203.767 79.588L206.413 73.7113L186.028 36.1321Z" fill="white"/>
<path d="M43.3011 92.7762C44.9501 90.8197 46.9599 89.192 49.2232 87.9797C51.1705 86.9613 53.3369 86.4227 55.5389 86.4094C56.615 86.4046 57.6757 86.6624 58.6273 87.1601C59.5946 87.6827 60.4464 88.3917 61.1326 89.2456C61.8751 90.1424 62.4511 91.1627 62.8336 92.259C63.2513 93.4424 63.4599 94.6882 63.4504 95.9418V118.352H57.2189V96.922C57.3435 95.243 56.8466 93.5765 55.821 92.234C55.3688 91.7236 54.8085 91.3182 54.1801 91.0468C53.5517 90.7754 52.8706 90.6446 52.1853 90.6636C51.4713 90.6683 50.7619 90.7772 50.08 90.9869C49.3028 91.216 48.5492 91.5177 47.8295 91.8878C47.0182 92.2946 46.2391 92.7617 45.499 93.285C44.7206 93.8471 43.9846 94.4646 43.2969 95.1327V118.306H37.0422V78.1324L41.4843 76.3806H43.2906L43.3011 92.7762Z" fill="white"/>
<path d="M83.3399 118.985C81.0482 119.009 78.7743 118.584 76.6494 117.734C74.6721 116.936 72.8735 115.758 71.3568 114.27C69.8633 112.797 68.6816 111.043 67.8809 109.112C67.0802 107.181 66.6766 105.111 66.6937 103.023C66.6751 100.8 67.0986 98.5945 67.94 96.5332C68.7348 94.5555 69.918 92.7537 71.421 91.2323C72.9239 89.7109 74.7168 88.5001 76.6957 87.6702C78.8096 86.7765 81.088 86.3284 83.3862 86.3543C85.6584 86.3164 87.9171 86.7086 90.0409 87.5096C92 88.258 93.7965 89.3707 95.3335 90.7879C96.8198 92.1655 98.0093 93.8269 98.8303 95.672C99.6707 97.5631 100.096 99.6097 100.077 101.676C100.095 103.966 99.6723 106.239 98.8303 108.372C98.053 110.395 96.8794 112.245 95.3771 113.817C93.8747 115.389 92.0733 116.65 90.0767 117.529C87.9652 118.496 85.666 118.994 83.3399 118.989V118.985ZM84.5062 116.676C85.7071 116.689 86.8871 116.365 87.9104 115.742C88.9602 115.086 89.8642 114.226 90.5672 113.212C91.3485 112.083 91.9387 110.835 92.3146 109.517C92.732 108.064 92.9397 106.559 92.9314 105.048C92.9396 102.913 92.7408 100.783 92.3377 98.6854C92.0092 96.8629 91.3684 95.1095 90.443 93.501C89.5873 91.9981 88.3274 90.7598 86.8035 89.9241C85.2796 89.0883 83.5515 88.6878 81.8115 88.7671C80.7266 88.7779 79.6672 89.094 78.7568 89.6785C77.7323 90.3301 76.8457 91.173 76.1463 92.1601C75.3572 93.2805 74.7479 94.5151 74.34 95.82C73.8803 97.2613 73.6523 98.7652 73.6642 100.277C73.6513 102.433 73.8937 104.584 74.3863 106.685C74.8089 108.524 75.5253 110.284 76.5084 111.899C77.3749 113.293 78.5461 114.476 79.9357 115.362C81.3054 116.23 82.9019 116.679 84.5272 116.655L84.5062 116.676Z" fill="white"/>
<path d="M103.178 87.0609H109.431V92.9147C110.262 92.0051 111.166 91.1634 112.134 90.3976C113.113 89.6214 114.154 88.924 115.245 88.3122C116.279 87.7502 117.364 87.2865 118.485 86.9274C119.461 86.592 120.484 86.4125 121.517 86.3956C122.482 86.4034 123.439 86.5712 124.348 86.892C125.299 87.2187 126.195 87.6855 127.005 88.2767C127.813 88.869 128.523 89.5816 129.11 90.3892C129.698 91.171 130.097 92.0755 130.277 93.0335C130.843 92.0399 131.571 91.1463 132.433 90.3892C133.363 89.5816 134.384 88.8819 135.475 88.3038C136.588 87.7128 137.76 87.2369 138.971 86.8836C140.152 86.5371 141.376 86.3581 142.607 86.3519C143.765 86.3476 144.907 86.6164 145.94 87.136C146.989 87.6582 147.924 88.3803 148.691 89.261C149.493 90.1791 150.124 91.2304 150.557 92.3662C151.025 93.5789 151.262 94.8673 151.256 96.1658V118.246H144.961V97.1293C144.966 96.2745 144.812 95.426 144.506 94.6268C144.224 93.8752 143.81 93.1791 143.283 92.5706C142.783 91.9921 142.173 91.5172 141.487 91.1733C140.82 90.8346 140.081 90.6601 139.331 90.6645C138.446 90.6663 137.565 90.7792 136.708 91.0002C135.823 91.2223 134.966 91.5441 134.155 91.9595C133.37 92.3585 132.628 92.8343 131.94 93.3797C131.32 93.8675 130.785 94.4521 130.355 95.1106V118.315H124.123V97.1293C124.127 96.2737 123.969 95.4248 123.658 94.6268C123.363 93.8767 122.941 93.1814 122.412 92.5706C121.912 91.9878 121.297 91.5123 120.605 91.1733C119.93 90.836 119.183 90.6617 118.426 90.6645C117.597 90.6698 116.773 90.7905 115.978 91.0232C115.112 91.2672 114.273 91.5962 113.473 92.0054C112.67 92.4047 111.909 92.8804 111.199 93.4256C110.555 93.9252 109.969 94.4946 109.452 95.1231V118.328H103.178V87.0609Z" fill="white"/>
<path d="M169.629 118.987C167.566 119.011 165.519 118.618 163.615 117.832C161.787 117.072 160.121 115.975 158.707 114.599C157.297 113.221 156.169 111.586 155.385 109.784C154.59 107.918 154.193 105.909 154.219 103.884C154.218 101.527 154.613 99.186 155.385 96.9565C156.061 94.9274 157.13 93.0487 158.533 91.4259C159.885 89.8801 161.553 88.6362 163.427 87.7765C165.425 86.8783 167.598 86.4289 169.791 86.4605C171.741 86.4361 173.675 86.805 175.476 87.545C177.088 88.2137 178.555 89.1821 179.8 90.3978C181.025 91.6083 182.004 93.0405 182.684 94.6166C183.375 96.1903 183.728 97.8889 183.722 99.6049H160.2C160.165 101.567 160.421 103.524 160.958 105.413C161.45 107.078 162.239 108.643 163.288 110.032C164.221 111.287 165.413 112.33 166.785 113.091C168.159 113.855 169.709 114.253 171.284 114.247C172.617 114.247 173.941 114.025 175.2 113.588C176.419 113.178 177.573 112.598 178.627 111.867C179.61 111.181 180.486 110.356 181.227 109.419C181.905 108.573 182.418 107.61 182.743 106.579L184.503 107.363C184.029 108.975 183.293 110.5 182.324 111.878C181.351 113.275 180.172 114.521 178.827 115.573C177.489 116.614 176.004 117.457 174.421 118.076C172.896 118.676 171.271 118.989 169.629 118.999V118.987ZM175.878 97.0482C175.916 94.8376 175.08 92.6998 173.547 91.0923C172.789 90.325 171.882 89.7177 170.88 89.307C169.879 88.8963 168.804 88.6906 167.72 88.7024C166.776 88.7042 165.846 88.9256 165.004 89.3489C164.116 89.7738 163.324 90.3709 162.674 91.1048C161.22 92.7739 160.349 94.8637 160.192 97.0628L175.878 97.0482Z" fill="white"/>
<path d="M231.674 96.911C231.674 96.911 237.199 95.4908 233.359 85.5601C229.519 75.6293 222.378 72.8599 222.378 72.8599C222.378 72.8599 218.881 79.6249 222.75 89.5682C226.62 99.5115 231.674 96.911 231.674 96.911Z" fill="#2D7274"/>
<path d="M255.849 76.7237C255.849 76.7237 259.485 72.3589 250.51 66.5406C241.536 60.7223 234.11 62.6846 234.11 62.6846C234.11 62.6846 235.277 70.1775 244.298 76.0084C253.319 81.8392 255.849 76.7237 255.849 76.7237Z" fill="white"/>
<path d="M263.529 46.3341C263.529 46.3341 263.902 40.6889 253.178 41.1727C242.454 41.6565 237.569 47.5124 237.569 47.5124C237.569 47.5124 242.978 52.8928 253.702 52.4089C264.426 51.9251 263.529 46.3341 263.529 46.3341Z" fill="#387B8C"/>
<path d="M251.755 17.2649C251.755 17.2649 248.723 12.4684 240.309 19.0896C231.894 25.7108 231.416 33.2705 231.416 33.2705C231.416 33.2705 238.98 34.4946 247.384 27.8776C255.789 21.2605 251.755 17.2649 251.755 17.2649Z" fill="#54C2BB"/>
<path d="M225.065 0.521516C225.065 0.521516 219.773 -1.60353 216.905 8.6046C214.038 18.8127 218.072 25.2775 218.072 25.2775C218.072 25.2775 224.926 21.8825 227.827 11.641C230.728 1.39948 225.065 0.521516 225.065 0.521516Z" fill="#7EB87A"/>
<path d="M193.474 2.44954C193.474 2.44954 187.927 3.80089 191.632 13.7754C195.338 23.75 202.449 26.6029 202.449 26.6029C202.449 26.6029 205.946 19.8711 202.285 9.89448C198.624 -0.0821552 193.474 2.44954 193.474 2.44954Z" fill="#AEC385"/>
</svg>
